<svg xmlns="http://www.w3.org/2000/svg" xmlns:xlink="http://www.w3.org/1999/xlink" version="1.1" width="256" height="256" viewBox="0 0 256 256" xml:space="preserve">

<defs>
</defs>
<g style="stroke: none; stroke-width: 0; stroke-dasharray: none; stroke-linecap: butt; stroke-linejoin: miter; stroke-miterlimit: 10; fill: none; fill-rule: nonzero; opacity: 1;" transform="translate(1.4065934065934016 1.4065934065934016) scale(2.81 2.81)" >
	<path d="M 34.307 42.764 H 8.457 C 3.794 42.764 0 38.97 0 34.307 V 8.457 C 0 3.794 3.794 0 8.457 0 h 25.85 c 4.663 0 8.457 3.794 8.457 8.457 v 25.85 C 42.764 38.97 38.97 42.764 34.307 42.764 z M 8.457 6 C 7.102 6 6 7.102 6 8.457 v 25.85 c 0 1.355 1.102 2.457 2.457 2.457 h 25.85 c 1.355 0 2.457 -1.102 2.457 -2.457 V 8.457 C 36.764 7.102 35.662 6 34.307 6 H 8.457 z" style="stroke: none; stroke-width: 1; stroke-dasharray: none; stroke-linecap: butt; stroke-linejoin: miter; stroke-miterlimit: 10; fill: #1b65a1; fill-rule: nonzero; opacity: 1;" transform=" matrix(1 0 0 1 0 0) " stroke-linecap="round" />
	<path d="M 81.543 42.764 h -25.85 c -4.663 0 -8.457 -3.794 -8.457 -8.457 V 8.457 C 47.236 3.794 51.03 0 55.693 0 h 25.85 C 86.206 0 90 3.794 90 8.457 v 25.85 C 90 38.97 86.206 42.764 81.543 42.764 z M 55.693 6 c -1.354 0 -2.457 1.102 -2.457 2.457 v 25.85 c 0 1.355 1.103 2.457 2.457 2.457 h 25.85 c 1.354 0 2.457 -1.102 2.457 -2.457 V 8.457 C 84 7.102 82.897 6 81.543 6 H 55.693 z" style="stroke: none; stroke-width: 1; stroke-dasharray: none; stroke-linecap: butt; stroke-linejoin: miter; stroke-miterlimit: 10; fill: #1b65a1; fill-rule: nonzero; opacity: 1;" transform=" matrix(1 0 0 1 0 0) " stroke-linecap="round" />
	<path d="M 34.307 90 H 8.457 C 3.794 90 0 86.206 0 81.543 v -25.85 c 0 -4.663 3.794 -8.457 8.457 -8.457 h 25.85 c 4.663 0 8.457 3.794 8.457 8.457 v 25.85 C 42.764 86.206 38.97 90 34.307 90 z M 8.457 53.236 C 7.102 53.236 6 54.339 6 55.693 v 25.85 C 6 82.897 7.102 84 8.457 84 h 25.85 c 1.355 0 2.457 -1.103 2.457 -2.457 v -25.85 c 0 -1.354 -1.102 -2.457 -2.457 -2.457 H 8.457 z" style="stroke: none; stroke-width: 1; stroke-dasharray: none; stroke-linecap: butt; stroke-linejoin: miter; stroke-miterlimit: 10; fill: #1b65a1; fill-rule: nonzero; opacity: 1;" transform=" matrix(1 0 0 1 0 0) " stroke-linecap="round" />
	<path d="M 81.543 90 h -25.85 c -4.663 0 -8.457 -3.794 -8.457 -8.457 v -25.85 c 0 -4.663 3.794 -8.457 8.457 -8.457 h 25.85 c 4.663 0 8.457 3.794 8.457 8.457 v 25.85 C 90 86.206 86.206 90 81.543 90 z M 55.693 53.236 c -1.354 0 -2.457 1.103 -2.457 2.457 v 25.85 c 0 1.354 1.103 2.457 2.457 2.457 h 25.85 C 82.897 84 84 82.897 84 81.543 v -25.85 c 0 -1.354 -1.103 -2.457 -2.457 -2.457 H 55.693 z" style="stroke: none; stroke-width: 1; stroke-dasharray: none; stroke-linecap: butt; stroke-linejoin: miter; stroke-miterlimit: 10; fill: #1b65a1; fill-rule: nonzero; opacity: 1;" transform=" matrix(1 0 0 1 0 0) " stroke-linecap="round" />
</g>
</svg>