<?xml version="1.0" encoding="utf-8"?>
<!-- Svg Vector Icons : http://www.onlinewebfonts.com/icon -->
<!DOCTYPE svg PUBLIC "-//W3C//DTD SVG 1.1//EN" "http://www.w3.org/Graphics/SVG/1.1/DTD/svg11.dtd">
<svg version="1.1" xmlns="http://www.w3.org/2000/svg" xmlns:xlink="http://www.w3.org/1999/xlink" x="0px" y="0px" viewBox="0 0 256 256" enable-background="new 0 0 256 256" xml:space="preserve">
<metadata> Svg Vector Icons : http://www.onlinewebfonts.com/icon </metadata>
<g><g><path fill="#FFF" d="M209.7,196.1c0,22.6-18.3,40.8-40.8,40.8h-118C28.3,237,10,218.7,10,196.1v-118c0-22.6,18.3-40.9,40.8-40.9H87c2.4,0,4.5,2,4.5,4.5c0,2.3-1.6,4.1-3.7,4.5c-7.1,2.4-13.5,5.2-18.9,8.5c-0.7,0.3-1.4,0.6-2.3,0.6H50.8c-12.5,0-22.7,10.2-22.7,22.7v118c0,12.5,10.2,22.7,22.7,22.7h118c12.5,0,22.7-10.2,22.7-22.7v-30.3c0-1.7,1-3.3,2.6-4.1c2.8-1.3,5.4-3.1,7.7-5.3c1.3-1.3,3.3-1.9,5-1.1c1.7,0.7,3,2.3,3,4.1L209.7,196.1L209.7,196.1z M188.9,143.5c-1.7,1.9-4,2.7-6.4,2.7c-1.1,0-2.4-0.3-3.5-0.7c-3.3-1.4-5.5-4.7-5.5-8.4v-27.2h-22.7c-31.2,0-51.1,5.9-62.1,18.6c-11.5,13.2-14.9,34.5-10.5,67.1c0.3,2-1,4-2.8,4.8c-0.6,0.1-1.1,0.3-1.7,0.3c-1.4,0-2.8-0.7-3.7-1.9c-1-1.4-23.6-33.3-23.6-61.7c0-38,11.9-81.7,104.4-81.7h22.7V28.1c0-3.7,2.3-7,5.5-8.4c1.1-0.4,2.4-0.7,3.5-0.7c2.4,0,4.7,1,6.4,2.7l54.5,54.5c3.5,3.5,3.5,9.2,0,12.8L188.9,143.5z"/></g></g>
</svg>